<?xml version="1.0" encoding="utf-8"?>
<!-- Generator: Adobe Illustrator 21.1.0, SVG Export Plug-In . SVG Version: 6.00 Build 0)  -->
<svg version="1.1" id="Layer_1" xmlns="http://www.w3.org/2000/svg" xmlns:xlink="http://www.w3.org/1999/xlink" x="0px" y="0px"
	 viewBox="0 0 72 72" style="enable-background:new 0 0 72 72;" xml:space="preserve">
<style type="text/css">
	.st0{fill:#30ADF9;}
</style>
<g>
	<path class="st0" d="M35.8,69C17.2,69.4,1.5,53.9,1.9,34.7C2.3,17.1,16.7,1.6,36.5,2C53.2,2.3,69.8,16.3,69,37
		C68.5,53.9,53.8,69.2,35.8,69z M35.6,3.9C17.8,3.9,4.1,17.2,3.9,35.3c-0.2,18,14,31.8,31.9,31.9C52.9,67.2,67,52.7,67.2,36
		C67.2,17.8,53.2,3.8,35.6,3.9z"/>
	<path class="st0" d="M43.9,44.9c-1.1,2.2-1.3,4.6-2.5,6.5c-1,1.6-2.1,3-3.9,3.5c-2.7,0.8-4.8-1.2-5.2-4c-1-7.1-0.1-14.2,0.5-21.2
		c0.1-1.3,0.1-2.7,0-4.1c0-0.5-0.4-1.1-0.7-1.3c-0.6-0.3-1,0.4-1.2,0.8c-2.2,4-4.3,8.1-4.4,12.9c0,3.3,0.2,6.6-0.4,9.9
		c-0.2,0.8-0.1,1.5-1.1,1.7c-1,0.2-1.6-0.2-2.1-1.2c-0.4-0.9-0.5-1.7-0.5-2.6c0-5.8,0.9-19.4-0.3-19.8c-1.2-0.4-2.5,3.6-3.3,5.5
		c-1.9,4.6-3.2,9.5-3.7,14.5c-0.2,1.4-0.3,3.7-1.7,3.7c-1.8,0.1-1.7-2.3-1.8-3.6C11,40.6,10.7,35,11.4,29.4c0.4-3.3,0.2-6.6,0-9.9
		c-0.1-1.7,0.8-1.9,1.8-1.5c1.6,0.6,3.1,1.9,2.8,3.6c-0.6,3.8-0.2,7.5-0.3,11.2c0,0.8,0.2,2.6,0.2,2.6s2.3-6.1,3.8-8.9
		c0.8-1.4,1.8-3.1,3.6-2.6c1.8,0.4,2.9,5.2,3.5,5.4s1.7-4,3.1-5.7c1.5-1.7,3.8-1.6,5.1,0.4c1.4,2.1,1.5,4.5,1.4,6.9
		c0,6.8-1.3,13.6-0.2,20.4c0.1,0.8-0.1,1.9,1.1,1.9c1,0,1.7-0.7,2.2-1.6c2.2-3.8,3.5-8,4-12.4c0.8-6.6,3.1-12.3,8.7-16.3
		c1.1-0.8,2.3-1.3,3.7-1.4c4.1-0.4,6.4,2.8,5.1,7.1c-0.1,0.2-0.6,1.9-1.3,1.8c-0.6-0.1-0.4-0.9-0.3-1.4c0.1-1.1,0.2-5.8-1-6.1
		c-1.3-0.4-2.6,0.2-3.7,1.2c-2.5,2.4-3.8,5.5-4.7,8.6c-1.1,3.5-1.8,7.2-1.5,11c0.1,1.2,0.5,2.3,0.8,3.4c1.2,3.6,4.6,3.6,7.4,1.3
		c3.2-2.6,5-6.2,6.3-10c0.2-0.5,0.3-1,0.6-1.4c0.1-0.2,0.3-0.6,0.7-0.3c0.2,0.2,0.3,0.3,0.2,0.7c-1.3,4.5-3.1,8.8-6.7,12
		C52.1,54.5,46.5,51.4,43.9,44.9z"/>
</g>
</svg>
